<?xml version="1.0" encoding="UTF-8" standalone="no"?>
<!-- Created with Inkscape (http://www.inkscape.org/) -->

<svg
   xmlns:dc="http://purl.org/dc/elements/1.1/"
   xmlns:cc="http://creativecommons.org/ns#"
   xmlns:rdf="http://www.w3.org/1999/02/22-rdf-syntax-ns#"
   xmlns:svg="http://www.w3.org/2000/svg"
   xmlns="http://www.w3.org/2000/svg"
   xmlns:inkscape="http://www.inkscape.org/namespaces/inkscape"
   version="1.1"
   width="699.28748"
   height="745.53748"
   id="svg2"
   xml:space="preserve"><metadata
     id="metadata8"><rdf:RDF><cc:Work
         rdf:about=""><dc:format>image/svg+xml</dc:format><dc:type
           rdf:resource="http://purl.org/dc/dcmitype/StillImage" /></cc:Work></rdf:RDF></metadata><defs
     id="defs6" /><g
     transform="matrix(1.25,0,0,-1.25,0,745.5375)"
     id="g10"><g
       transform="scale(0.1,0.1)"
       id="g12"><path
         d="m 3322.75,2220.54 -38.79,17.24 c 0,0 -0.12,-0.33 -0.32,-0.81 l -1.02,0.81 c 0,0 -1.19,-1.59 -3.48,-4.46 -44.41,-26.61 -390.31,-218.53 -753.22,25.87 233.82,-201.78 538.25,-142.27 688.11,-94.24 -105.73,-96.8 -330.3,-247.2 -649.78,-170.34 278.34,-103.31 533.54,42.43 662.74,140.32 -81.73,-121.99 -258.3,-310 -573.76,-318.29 424.24,-39.61 669.52,403.9 669.52,403.9 m -893.47,-399.65 c 0,0 -72.73,-12.25 -115.6,-13.79 18.38,44.42 9.95,97.63 9.95,97.63 -53.98,-65.46 -232.74,-205.58 -232.74,-205.58 0,0 -47.47,-114.82 -45.18,-156.17 158.48,52.82 310.07,156.18 383.57,277.91 m -146.99,97.56 c 0,0 -120.21,-36.32 -152.36,-33.25 30.62,53.59 27.18,134.37 27.18,134.37 -63.16,-71.2 -281.36,-214.75 -281.36,-214.75 0,0 -25.27,-130.92 -18.38,-186.05 176.86,71.2 385.87,213.5 424.92,299.68 m -174.56,102.27 c 0,0 -98.77,-28.32 -127.86,-25.27 15.31,44.41 -16.85,84.98 -16.85,84.98 -48.23,-68.89 -263.71,-196.37 -263.71,-196.37 0,0 -16.5,-106.81 -16.5,-138.96 124.03,27.57 344.53,179.15 424.92,275.62 m -183.75,59.71 -129.39,11.5 -12.25,87.26 c -75.03,-84.23 -251.12,-183.74 -251.12,-183.74 0,0 -55.13,-91.86 -50.53,-135.51 181.45,18.37 362.9,128.63 443.29,220.49 m -163.08,114.85 c 0,0 -104.11,-2.31 -131.68,-5.36 9.19,49 -15.31,96.46 -15.31,96.46 -42.88,-62.77 -227.39,-148.52 -227.39,-148.52 0,0 -82.69,-107.95 -48.23,-142.41 142.4,11.49 319.26,84.98 422.61,199.83 m -184.5,114.84 c 0,0 -78.48,-2.29 -89.96,0 22.96,33.31 25.26,90.72 25.26,90.72 -136.66,-114.46 -343.38,-150.44 -343.38,-150.44 0,0 -68.9,-45.36 -68.9,-112.54 137.81,3.06 362.13,27.56 476.98,172.26 m -95.71,103.36 c 0,0 -96.47,10.34 -127.47,12.64 21.82,37.89 29.86,99.91 29.86,99.91 -90.34,-52.83 -335.72,-104.9 -335.72,-104.9 0,0 -113.313,-86.52 -111.016,-134.75 96.466,-16.07 356.006,-10.71 544.346,127.1 m -142.4,120.59 c 0,0 -94.17,11.08 -116.38,16.44 35.22,34.46 58.2,88.06 58.2,88.06 -173.8,-76.55 -453.251,-55.89 -479.282,-49 0,0 -81.922,-51.3 -111.781,-110.25 149.297,-43.64 394.293,-52.07 649.243,54.75 m -82.68,120.57 c 0,0 -125.19,44.64 -147,49.32 43.63,36.82 48.23,95.39 48.23,95.39 -220.496,-61.24 -477.742,-14.76 -477.742,-14.76 0,0 -98.762,0 -149.293,-90.9 98.765,-41.34 316.965,-144.7 725.805,-39.05 m -130.93,147 c 0,0 -103.36,57.43 -140.106,71.21 64.316,56.26 72.346,119.49 72.346,119.49 -142.4,-43.58 -458.213,-0.06 -458.213,-0.06 -190.637,2.29 -229.512,-59.72 -229.512,-59.72 57.422,-71.2 329.035,-176.08 755.485,-130.92 M 1030,3009.41 c 0,0 -50.02,48.33 -86.77,60.96 37.903,34.45 40.2,96.46 40.2,96.46 -240.016,-34.44 -479.407,33.21 -479.407,33.21 -183.988,20.4 -234.906,-51.57 -234.906,-51.57 57.414,-71.21 340.563,-201.08 760.883,-139.06 m -99.016,166.62 c 0,0 -117.523,93.02 -135.894,102.21 66.609,27.55 59.328,83.06 59.328,83.06 -174.555,-21.44 -425.434,41.2 -425.434,41.2 -184.004,20.4 -229.519,-39.32 -229.519,-39.32 57.422,-71.2 298.187,-191.65 731.519,-187.15 m -117.91,205.17 c 0,0 -88.801,68.91 -113.304,82.69 71.964,30.64 72.347,81.92 72.347,81.92 -221.637,1.15 -408.832,105.66 -408.832,105.66 -184.004,20.4 -228.535,-19.52 -228.535,-19.52 57.418,-71.21 248.059,-262.99 678.324,-250.75 m -67.238,187.58 -79.758,88.49 c 0,0 96.473,-11.15 137.047,7.98 -174.555,39.05 -442.164,215.67 -442.164,215.67 -184.008,20.39 -243.063,-20.41 -243.063,-20.41 34.266,-42.49 213.625,-236.01 627.938,-291.73 m -13.91,135.52 -41.34,71.96 55.25,31.39 c -119.316,112.55 -454.902,351.42 -454.902,351.42 0,0 -75.793,43.64 -178.305,59.71 46.781,-275.61 603.223,-503 619.297,-514.48 M 286.34,4193.52 c 0,0 323.68,-213.6 434.019,-339.93 l 0,62.01 c -59.812,183.75 -381.195,468.55 -541.968,521.38 43.636,-144.7 98.761,-231.97 107.949,-243.46 m 34.457,227.39 c 0,0 381.273,-326.15 438.691,-505.31 l -22.968,133.22 32.156,13.78 c -66.606,124.03 -307.778,514.49 -498.41,604.06 -5.754,-98.24 50.531,-227.38 50.531,-245.75 m 86.512,228.6 c 0,0 365.195,-453.7 405.765,-616.77 l 30.633,6.89 c 0,0 124.031,-292.46 248.823,-273.32 -220.499,75.79 -488.76,1040.46 -670.257,1215.02 -34.871,-114.84 -21.82,-315.75 -14.964,-331.82 m 189.101,150.38 c 0,0 307.778,-955.49 546.65,-1033.58 l 2.3,27.56 c 0,0 36.74,-25.26 73.49,-27.56 C 915.676,3963.07 783.988,4898.65 679.863,5223.28 633.926,5103.83 581.098,4827.44 596.41,4799.89 m 245.762,37.52 c 0,0 101.058,-793.19 376.678,-1035.11 l 0,28.32 c 0,0 81.54,-67.76 110.25,-64.31 -327.68,230.45 -251.11,1536.57 -398.116,1701.95 -143.937,-211.31 -88.812,-630.85 -88.812,-630.85 m 263.368,-220.13 c 0,0 15.31,-680.23 294,-836.42 l 12.25,62.39 c 0,0 117.14,-119.18 165.37,-118.15 -436.4,374.49 -156.18,1214.89 -321.55,1848.81 -183.75,-160.78 -150.07,-956.63 -150.07,-956.63 M 4251.25,1594.09 c -28.72,-12.94 -78.67,92.45 -88.53,76.82 -21.03,-26.73 -21.15,-176.75 6.03,-257.32 -20.34,-23.34 -109.69,135.67 -127.78,116.34 -51.11,-54.65 -88.89,-90.31 -88.89,-90.31 l -41.34,124.03 c 0,0 -99.53,-90.34 -96.47,-344.53 0.31,-26.81 -62.27,159.14 -86.13,188.34 -33.69,-38.16 -100.58,-143.55 -21.06,-424.151 -22.1,-25.329 -121.97,266.851 -139.72,246.161 -36.77,-42.85 -62.99,-104.18 -63.73,-107.95 -0.92,-4.64 -31.59,41.91 -91.88,-40.77 -22.04,34.45 -21.33,200.86 -49.2,227.19 -18.86,17.82 -31.07,-109.35 -52.05,-81.17 -20.65,27.78 -29.22,202.51 -51.43,227.79 -16.01,18.21 -42.56,-59.44 -54.23,-124.9 -19.52,25.01 -34.57,208.55 -54.36,233.42 -13.56,17.05 -51.68,-105.47 -57.3,-94.05 -4.36,8.83 -20.17,141.56 -23.2,208.95 -83.74,-74.07 -292.6,-298.48 -305.36,-299.23 -15.24,-0.88 102.39,240.34 95.32,240.02 -15.46,-0.69 -238.33,-213.82 -253.8,-214.36 -15.47,-0.55 130.97,256.98 97.61,256.85 -15.31,-0.05 -235.42,-217.15 -250.74,-217.04 -15.3,0.09 124.06,230.98 96.85,231.97 -15.16,0.58 -231.74,-181.02 -246.91,-180.3 -15.15,0.73 103.12,163.24 87.99,162.07 -104.51,-8.03 -254.89,-154.8 -387.72,-165.52 -38.44,-3.09 25.14,141.58 3.32,146.18 -15.18,3.2 -194.83,-80.35 -210.03,-77.27 -15.21,3.09 41.59,167.91 14.93,174.56 -36.43,9.09 -140.62,-51.32 -174.56,-40.19 -38.32,12.55 33.45,131.26 -2.3,145.85 -34.65,14.15 -153.4,-34.84 -190.63,-22.4 -42.79,14.31 38.55,113.57 19.51,148.71 -14.92,27.57 -153.93,-33.11 -195.61,-10.71 -13.59,7.31 50.56,145.54 37.14,153.13 -13.44,7.58 -203.11,-36.52 -262.84,1.38 -12.8,8.12 54.97,132.98 54.97,132.98 -12.18,9.03 -207.897,-12.52 -231.979,8.04 -27.45,23.43 109.703,152.22 98.761,163.08 -10.937,10.85 -287.101,-14.94 -369.785,53.97 -32.754,27.29 130.727,104.95 121.735,117.14 -8.997,12.2 -240.407,60.86 -271.028,103.74 -18.609,26.04 114.008,89.39 106.41,102.6 -7.578,13.22 -216.66,70.43 -254.554,142.78 -15.16,28.93 116.715,65.33 110.629,79.23 -4.313,9.87 -164.067,68.76 -203.657,141.84 -14.925,27.56 130.34,59.4 124.028,72.54 -4.59,9.57 -202.813,92.52 -195.223,155.04 3.055,25.27 146.715,48.9 143.164,63.92 -3.551,15.04 -199.4413,120.2 -212.0702,220.5 -3.25,25.73 149.5312,26.13 147.7582,41.34 -1.762,15.22 -176.8598,132.46 -177.6176,209.01 -0.2305,23.49 205.1756,-22.96 208.2466,20.68 C 243.02,3955.44 0.769531,4145.29 0,4289.22 c -0.40625,77.52 190.641,-77.33 205.191,-30.63 4.516,14.52 -116.3785,178.39 -101.445,282.9 3.223,22.56 151.918,-89.96 156.336,-75.2 4.41,14.77 -88.582,211.86 -31.16,332.44 6.527,13.73 127.621,-128.24 133.976,-114.45 6.364,13.79 -53.586,297.05 16.848,416.49 36.84,62.47 156.145,-146.19 166.133,-134.37 9.996,11.84 47.844,322.71 134.363,418.02 10.305,11.35 82.297,-242.31 94.563,-233.12 12.261,9.19 15.308,346.06 195.992,496.12 34.553,28.7 88.743,-395.13 103.353,-390.47 14.62,4.68 18.38,399.65 199.82,441 254.19,-263.38 -76.55,-1552.66 364.44,-1956.94 232.24,-436.92 689.2,-823.54 1436.36,-1031.76 -7.61,-66.17 -26.17,-263.67 183.58,-198.06 25.22,69.08 50.35,125.13 73.59,159.53 9.49,-44.17 20.19,-90.06 32.49,-136.55 7.17,-27.06 35.28,-31.25 40.24,-47.96 7.45,-25.06 -35.34,-81.5 -26.79,-106.42 1.53,-44.41 82.85,-23.77 92.62,-48.23 9.71,-24.26 -37.81,-70.78 -26.78,-94.17 11.99,-25.48 89.24,-13.47 102.97,-37.51 12.39,-21.72 -71.33,-110.73 -57.42,-130.92 18.16,-26.37 119.12,32.33 140.11,9.18 17.87,-19.71 -40.77,-117.47 -20.68,-134.37 18.26,-15.33 109.55,41.38 129.78,28.71 22.71,-14.2 -1.23,-102.15 24.11,-112.54 21.57,-8.83 91.25,66.6 114.85,60.86 28.11,-6.83 35.83,-68.07 66.98,-70.05 25.01,-1.59 51.04,62.48 78.09,64.3 22.21,1.51 29.96,-57.55 53.61,-53.58 66.76,11.18 155.24,45.91 234.26,78.86 -71.96,-135.51 -79.24,-284.81 -59.13,-346.24 M 2211.08,4035.04 c 0,0 245.77,-34.45 365.2,-189.49 0,0 -41.34,104.5 -144.7,166.52 55.12,-3.06 103.36,4.6 103.36,4.6 -153.89,151.59 -436.4,273.31 -512.2,238.87 64.31,-80.39 179.15,-213.61 188.34,-220.5 m 153.13,168.43 c 0,0 184.51,-114.46 239.63,-210.92 0,0 -40.58,169.59 -91.11,212.46 67.38,-26.03 118.67,-13.79 118.67,-13.79 -107.95,130.92 -434.1,459.37 -565.02,458.29 25.27,-113.63 297.83,-446.04 297.83,-446.04 m 73.5,264.91 c 0,0 237.33,-232.75 303.18,-370.55 0,0 -56.66,211.68 -94.95,275.99 38.29,4.6 104.13,0 104.13,0 0,0 -444.05,708.58 -538.99,630.48 27.56,-250.35 226.63,-535.92 226.63,-535.92 m 205.21,136.21 c 0,0 151.56,-181.39 181.41,-314.61 0,0 19.14,152.36 -13.01,228.93 53.6,-32.16 117.91,-71.97 117.91,-71.97 0,0 -274.09,822.26 -476.22,932.51 -24.49,-134.75 180.72,-759.54 189.91,-774.86 m 43.41,949.41 c 0.55,-248.05 63.74,-483.86 63.74,-483.86 0,0 228.16,-561.95 225.86,-672.2 0,0 43.64,104.12 14.54,194.47 67.38,-45.94 105.66,-58.19 105.66,-58.19 0,0 -260.3,891.17 -409.8,1019.78 m 336.3,-716.59 c 0,0 143.94,-340.71 160.01,-463.59 0,0 14.54,181.84 -17.62,249.21 70.44,-79.63 99.55,-128.24 99.55,-128.24 0,0 -52.07,878.54 -290.94,1328.71 -91.88,-153.11 49,-986.09 49,-986.09 M 2724.04,2960.12 c 0,0 -105.66,81.15 -189.87,113.31 65.84,16.85 80,55.12 80,55.12 0,0 -269.87,113.32 -442.9,194.47 94.94,-177.62 321.56,-344.52 552.77,-362.9 m -136.28,227.39 c 0,0 -62.77,81.92 -140.1,118.68 143.16,10.7 156.94,76.55 156.94,76.55 -125.17,5.74 -286.71,64.31 -286.71,64.31 0,0 -49.38,11.49 -122.86,-18.56 27.53,-128.44 385.84,-238.68 392.73,-240.98 m -11.48,227.39 c 0,0 -26.8,58.19 -107.95,96.46 137.81,26.03 166.9,64.31 166.9,64.31 0,0 -414.96,71.2 -502.05,52.3 117.35,-179.69 424.72,-201.59 443.1,-213.07 m 28.32,188.34 c -59.71,41.34 -136.27,75.79 -136.27,75.79 l 89.57,0 c -153.88,87.28 -353.71,130.92 -461,123.03 61.68,-141.24 408.17,-159.01 507.7,-198.82 m 9.57,75.79 c 0,0 -79.23,94.17 -152.73,135.51 59.71,0 82.69,18.38 82.69,18.38 -149.3,133.21 -369.79,172.26 -447.23,144.7 55.61,-111.4 411.62,-206.71 517.27,-298.59 m -476.58,358.31 c -0.16,15.38 -220.95,249.12 -218.2,283.69 2.98,37.51 300.54,-54.11 303.17,-39.08 2.65,15.04 -264.13,352.56 -245.75,453.62 7.93,43.61 297.33,-143.65 303.18,-129.38 5.84,14.27 -185.28,387.4 -114.84,503.77 28.73,47.48 316.04,-254.54 324.61,-241.93 8.58,12.6 -152.37,642.27 -114.84,685.97 24.47,28.5 260.59,-280.27 271.41,-269.48 10.82,10.78 -87.76,390.91 -18.38,457.07 49.39,47.08 263.28,-416.88 269.89,-418.03 15.08,-2.62 -64.32,469.7 44.68,635.07 47.19,71.62 300.61,-539.37 384.42,-1463.84 90.6,-656.34 -408.16,-1099.48 250,-1603.25 -54.43,-72.67 -153.93,-109.57 -252.66,-125.88 -44.13,-7.28 -79.63,-249.59 -160.78,-211.32 -98.38,18.39 -19.13,203.01 -47.87,206.62 -415.34,52.17 -933.83,358.42 -1005.61,588.86 -3.37,7.84 128.07,-31.04 124.8,-23.23 -56.66,54.61 -88.96,82.76 -90.35,125.83 -0.57,17.79 111.43,14.79 101.83,26.79 -27.56,34.45 -143.93,97.22 -161.54,154.65 -4.22,13.75 97.56,24.78 94.17,39.81 -3.39,15.04 -148.14,111.02 -147.58,155.23 0.28,20.79 103.6,14.16 101.83,29.28 -1.75,15.12 -153.91,159.99 -154.84,173.8 -1.22,17.98 159.4,-10.02 159.25,5.36 M 4602.08,2385.91 c 0,0 -250.36,188.34 -305.47,236.57 94.17,18.39 147,16.09 147,16.09 l 96.45,-100.76 c 0,0 -160.77,286.8 206.72,222.86 -144.7,57.05 -293.99,45.56 -500.7,-161.15 241.16,-198.68 356,-246.91 356,-246.91 l 0,33.3 z m -222.79,498.42 c -1.72,1.97 -3.47,3.65 -5.2,5.49 -65.27,-147.95 -211.78,-45.08 -284.21,-31.88 -13.03,-10.18 -20.67,-17.25 -20.67,-17.25 62.04,11.48 241.17,-140.11 310.08,43.64 m -177.54,37.51 c 0.95,-16.76 3.77,-42 44.33,-48.99 48.03,3.25 56.72,37.14 62.97,57.19 -35.55,9.67 -72.9,4.01 -107.3,-8.2 m -196.07,-912.61 199.05,460.52 c -11.68,5.3 -24.31,8.5 -39.04,6.89 l -160.01,-467.41 z m 275.61,433.33 -76.56,-395.04 101.83,382.8 c -6.84,7.26 -15.31,11.23 -25.27,12.24 m 339.16,-29.08 c 21.44,-49 16.09,-160.78 3.83,-160.78 -50.82,19.36 -176.19,96.07 -226.54,127.41 -120.33,143.18 -297.1,136.87 -299.04,136.7 L 3795.9,2108 l 326.18,391.06 c 31.24,-1.07 159.45,-7.73 254.8,-105.89 -0.41,0.24 -0.65,0.4 -0.65,0.4 0,0 74.26,-439.6 -290.17,-491.67 -27.84,-3.98 -22.23,74.05 -48.22,73.65 -29.99,-0.46 -62.76,-77.38 -90.35,-73.5 -23.52,3.31 -6.06,86.06 -27.9,92.21 -26,7.34 -89.27,-67.93 -112.97,-56.99 -19.9,9.18 10.67,101.89 -7.66,113.31 -23.79,14.8 -112.45,-60.38 -133.66,-42.33 -23.77,20.21 51.75,106.17 31.07,129.61 -10.92,12.35 -121.59,-34.49 -131.65,-21.42 -12.62,16.38 67.11,98.04 53.56,122.48 -13.89,25.03 -117.57,-1.24 -119.44,22.97 -3.11,40.25 50.69,80.09 35.22,111.39 -10.07,20.38 -99.15,1.5 -107.95,21.83 -11.11,25.66 66.41,101.35 57.42,126.32 -8.63,23.96 -95.61,-8.97 -102.21,13.78 -6.08,20.96 72.04,104.59 67.75,124.03 -6.31,28.62 -82.74,11.5 -84.98,35.61 109.46,86 225.95,144.54 327.23,189.38 -58.45,48.27 -114.5,113.25 -127.41,190.73 75.8,-112.54 314.67,-85.74 314.67,-85.74 0,0 -101.07,26.02 -142.4,156.95 71.2,-107.95 349.88,-38.73 349.88,-38.73 l 0,0 c 96.02,36.2 223.11,54.43 307.85,48.67 128.33,-8.69 214.75,-119.06 223.48,-130.62 -50.91,-3.92 -81.19,-21.63 -90.93,-56.03 -0.94,-3.3 -1.85,-6.73 -2.79,-10.28 -11.24,-42.1 -24.87,-104.63 -127.36,-142.01 l 1.36,-7.1 c 114.07,37.51 128.34,99.13 140.1,143.17 0.94,3.49 -1.5,9.65 -0.56,12.92 8.93,31.62 55.5,45.2 103.54,43.73 5.35,-0.16 9.86,-0.58 14.05,-0.95 109.39,-55.68 182.21,-183.5 110.36,-324.43 -52.06,69.66 -125.57,91.87 -189.88,36.74 -6.11,-107.18 15.32,-232.74 15.32,-232.74 0,0 61.25,-73.5 217.43,12.25 -37.14,-95.33 -187.58,-87.28 -187.58,-87.28 M 3511.09,1026.19 c 183.74,-266.428 395.05,-339.928 519.08,-353.721 -45.93,45.953 -124.03,142.422 -110.24,176.871 l 437.93,-20.68 c 0,0 -103.74,-250.73 -30.25,-299.73 24.5,-76.559 89.58,-157.328 204.81,-130.528 -112.93,21.438 -137.05,112.149 -111.79,148.52 62.78,85.738 42.5,258.777 42.5,258.777 0,0 234.65,191.403 393.9,179.16 58.19,48.991 162.69,-26.039 178,-50.539 15.32,73.5 -88.42,142.4 -199.44,120.97 -45.93,48.98 -84.22,35.98 -180.68,19.9 16.46,46.65 95.32,87.67 94.17,120.97 27.56,34.45 83.84,70.63 190.63,64.31 -66.6,49.39 -192.93,37.89 -248.05,-17.22 -124.03,4.59 -134.37,-127.48 -258.39,-265.289 -353.71,0 -421.47,310.069 -531.71,502.999 -36.76,-45.94 -55.13,-222.4 -41.35,-325 -68.91,7.66 -99.91,62.01 -117.15,151.59 -58.18,-49 -28.32,-275.23 34.45,-451.331 -133.21,68.91 -191.74,270.351 -191.74,270.351 l -74.68,-94.26 m -59.72,-27.94 c -75.8,-57.421 67.76,-623.589 -41.34,-736.128 24.5,154.649 0.57,616.078 -52.83,737.278 -15.72,-111.719 -21.81,-723.489 -71.2,-769.438 2.3,55.117 40.84,681.098 -40.19,899.208 -37.34,-122.85 -16.47,-742.138 -104.51,-825.708 16.68,91.91 90.27,767.818 -10.34,987.638 -31.83,-83.53 -32.16,-855.572 -111.39,-815.38 62.02,289.402 23.27,852.01 23.27,852.01 0,0 -198.6,-921.678 -100.6,-1028.858 39.82,22.957 66.99,88.16 66.99,88.16 0,0 1.16,-154.023 65.46,-216.793 36.75,16.852 68.91,112.551 68.91,112.551 0,0 -6.16,-185.258 61.21,-214.3592 56.65,32.1482 77.74,136.2582 77.74,136.2582 0,0 26.42,-107.176 76.95,-124.0199 36.75,35.2229 56.66,133.9919 56.66,133.9919 0,0 41.34,-99.539 94.93,-108.73 45.94,59.719 24.5,148.531 24.5,148.531 0,0 42.87,-55.121 88.81,-56.652 34.83,110.25 -230.45,616.699 -173.03,800.44 m 207.86,-876.241 c -9.31,-12.129 -55.51,50.703 -70.06,45.953 -14.53,-4.77 -42.48,-127.4804 -66.6,-134.3711 -20.62,-5.9023 -83.64,91.5591 -98.77,89.5701 -15.11,-1.992 -31.01,-139.8396 -53.97,-128.620844 -40.51,19.781244 -64.12,91.332044 -79.24,93.031244 -15.11,1.6797 -67.75,-86.97265 -98.76,-79.0898 -27.9,7.0898 -62.69,133.1684 -75.79,141.0894 -13.11,7.93 -49.6,-68.9996 -63.16,-59.7105 -34.47,23.5395 -59.82,169.9685 -70.06,181.4495 -10.24,11.472 -76.53,-90.821 -80.38,-78.09 -125.57,413.43 152.73,1375.79 152.73,1375.79 0,0 22.97,-145.85 28.71,-214.75 21.82,48.24 55.13,120.58 55.13,120.58 0,0 56.82,-202.69 61.42,-288.82 12.64,90.72 35.03,161.35 35.03,161.35 0,0 78.1,-246.91 84.99,-310.07 16.08,130.92 32.16,169.96 32.16,169.96 0,0 41.74,-158 47.47,-226.888 29.86,99.418 86.51,85.638 86.51,85.638 -84.22,-223.548 273.71,-812.318 172.64,-944.001 M 4890.72,1480.96 c -120.49,72.29 -370.57,-125.56 -370.57,-125.56 0,0 45.95,-39.81 33.7,-73.5 -340.5,-0.76 -566.56,147 -566.56,147 18.54,19.59 16.71,25.31 44.41,53.6 18.04,18.42 149.97,-146.6 169.59,-125 -12.63,79.25 -33.56,218.43 -14.01,243.08 19.14,-22.97 56.88,-57.6 96.3,-57.6 -25.5,109.69 -1.45,260.47 38.87,342.22 202.13,-55.11 207.67,-292.45 600.43,-255.7 147,151.59 257.24,247.28 372.86,218.18 0,0 146.98,52.46 229.68,-25.64 -67.77,18.37 -167.68,31.82 -202.13,-57.02 20.66,-104.9 -334.19,-24.51 -172.27,-153.13 0,0 229.69,67.75 294,29.85 0,0 108.72,29.85 149.3,-27.57 -45.18,19.14 -119.83,19.14 -139.35,-13 2.3,-36.75 -48.23,-66.62 -91.87,-62.03 -43.63,4.6 -282.9,9.58 -316.58,-36.35 -33.69,-45.94 -135.52,-235.43 -27.57,-302.03 -4.58,-25.27 41.35,-91.88 82.69,-102.21 -58.57,-5.74 -106.8,35.59 -124.03,70.05 -63.16,10.34 -163.07,57.42 -120.58,147 42.5,89.57 60.49,149.29 33.69,165.36"
         inkscape:connector-curvature="0"
         id="path14"
         style="fill:#100f0d;fill-opacity:1;fill-rule:nonzero;stroke:none" /></g></g></svg>